<mxfile host="65bd71144e">
    <diagram id="AzQARifV1FqsPEH4sZtu" name="Page-1">
        <mxGraphModel dx="2897" dy="1767" grid="0" gridSize="10" guides="1" tooltips="1" connect="1" arrows="1" fold="1" page="1" pageScale="1" pageWidth="827" pageHeight="1169" background="#ffffff" math="0" shadow="0">
            <root>
                <mxCell id="0"/>
                <mxCell id="1" parent="0"/>
                <mxCell id="9" value="Tudu" style="html=1;shadow=0;dashed=0;fillColor=#343A40;strokeColor=none;fontSize=16;fontColor=#ffffff;align=left;spacing=15;" vertex="1" parent="1">
                    <mxGeometry width="827" height="60" as="geometry"/>
                </mxCell>
                <mxCell id="11" value="Tareas: 1/3" style="fillColor=none;strokeColor=none;fontSize=14;fontColor=#9A9DA0;align=center;" vertex="1" parent="9">
                    <mxGeometry width="96" height="40" relative="1" as="geometry">
                        <mxPoint x="706" y="10" as="offset"/>
                    </mxGeometry>
                </mxCell>
                <mxCell id="17" value="Tareas" style="html=1;shadow=0;dashed=0;shape=mxgraph.bootstrap.rrect;rSize=5;fillColor=none;strokeColor=#999999;align=left;spacing=15;fontSize=14;fontColor=#6C767D;" vertex="1" parent="1">
                    <mxGeometry width="160" height="30" relative="1" as="geometry">
                        <mxPoint x="64" y="119" as="offset"/>
                    </mxGeometry>
                </mxCell>
                <mxCell id="22" value="Agregar" style="html=1;shadow=0;dashed=0;shape=mxgraph.bootstrap.rrect;rSize=5;fillColor=#0085FC;strokeColor=none;align=center;fontSize=14;fontColor=#FFFFFF;" vertex="1" parent="1">
                    <mxGeometry width="159" height="40" relative="1" as="geometry">
                        <mxPoint x="67" y="274" as="offset"/>
                    </mxGeometry>
                </mxCell>
                <mxCell id="23" value="" style="shape=image;verticalLabelPosition=bottom;labelBackgroundColor=#ffffff;verticalAlign=top;aspect=fixed;imageAspect=0;image=data:image/png,iVBORw0KGgoAAAANSUhEUgAAAaYAAADlCAYAAAAYylN1AAABQ2lDQ1BJQ0MgUHJvZmlsZQAAKJFjYGASSSwoyGFhYGDIzSspCnJ3UoiIjFJgf8bAySDGwMGgzcCWmFxc4BgQ4ANUwgCjUcG3awyMIPqyLsis3vfuQdMvv15ekWU9QY3pXSemehTAlZJanAyk/wBxanJBUQkDA2MKkK1cXlIAYncA2SJFQEcB2XNA7HQIewOInQRhHwGrCQlyBrJvANkCyRmJQDMYXwDZOklI4ulIbKi9IMDt467gFurjo+DhQsC1ZICS1IoSEO2cX1BZlJmeUaLgCAylVAXPvGQ9HQUjAyMjBgZQmENUf74BDktGMQ6EWCHQj1aeDAxMuQixhAAGhh0fQF5FiKnqMDDwHGdgOBBbkFiUCHcA4zeW4jRjIwibezsDA+u0//8/hzMwsGsyMPy9/v//7+3///9dxsDAfAuo9xsAqPZflUpwRJgAAABWZVhJZk1NACoAAAAIAAGHaQAEAAAAAQAAABoAAAAAAAOShgAHAAAAEgAAAESgAgAEAAAAAQAAAaagAwAEAAAAAQAAAOUAAAAAQVNDSUkAAABTY3JlZW5zaG90OgfwggAAAdZpVFh0WE1MOmNvbS5hZG9iZS54bXAAAAAAADx4OnhtcG1ldGEgeG1sbnM6eD0iYWRvYmU6bnM6bWV0YS8iIHg6eG1wdGs9IlhNUCBDb3JlIDYuMC4wIj4KICAgPHJkZjpSREYgeG1sbnM6cmRmPSJodHRwOi8vd3d3LnczLm9yZy8xOTk5LzAyLzIyLXJkZi1zeW50YXgtbnMjIj4KICAgICAgPHJkZjpEZXNjcmlwdGlvbiByZGY6YWJvdXQ9IiIKICAgICAgICAgICAgeG1sbnM6ZXhpZj0iaHR0cDovL25zLmFkb2JlLmNvbS9leGlmLzEuMC8iPgogICAgICAgICA8ZXhpZjpQaXhlbFlEaW1lbnNpb24+MjI5PC9leGlmOlBpeGVsWURpbWVuc2lvbj4KICAgICAgICAgPGV4aWY6UGl4ZWxYRGltZW5zaW9uPjQyMjwvZXhpZjpQaXhlbFhEaW1lbnNpb24+CiAgICAgICAgIDxleGlmOlVzZXJDb21tZW50PlNjcmVlbnNob3Q8L2V4aWY6VXNlckNvbW1lbnQ+CiAgICAgIDwvcmRmOkRlc2NyaXB0aW9uPgogICA8L3JkZjpSREY+CjwveDp4bXBtZXRhPgr2v9n2AABAAElEQVR4Ae2dBViUWRfH/5S1BnYLNoqCAnbrKgY2Yndhu/bauXZ3N3auu66uga2rInZ3wtorGCDz3XPxnW+GGAZmwJE553lg3rj5e3X+nHvPe6+FShjYmAATYAJMgAmYCAFLE2kHN4MJMAEmwASYgCTAwsT/EJgAE2ACTMCkCLAwmdTj4MYwASbABJgACxP/G2ACTIAJMAGTIsDCZFKPgxvDBJgAE2ACLEz8b4AJMAEmwARMigALk0k9Dm4ME2ACTIAJsDDxvwEmwASYABMwKQLWISEh+PTpE758+YKvX7+aVOO4MUyACTABJmB+BKzfvHljfr3mHjMBJsAEmIDJEuChPJN9NNwwJsAEmIB5ErCmbidLlgzJkyeHtbU1LCwszJME95oJMAEmwARMgoB10qRJkTp1apNoDDeCCTABJsAEmIAFry7O/wiYABNgAkzAlAjwHJMpPQ1uCxNgAkyACYCFif8RMAEmwASYgEkRYGEyqcfBjWECTIAJMAEWJv43wASYABNgAiZFgIXJpB4HN4YJMAEmwARYmPjfABNgAkyACZgUARYmk3oc3BgmwASYABNgYeJ/A0yACTABJmBSBFiYTOpxcGOYABNgAkyAhYn/DTABJsAEmIBJEWBhMqnHwY1hAkyACTABFib+N8AEmAATYAImRYCFyaQeBzeGCTABJsAEWJj43wATYAJMgAmYFAG5UaAxWvTu3TsEBQUhJCQEYisNYxTJZTABJsAEmMAPToA2n7WxscFPP/2ENGnS6NUbg/djCg0NRWBgoNz91tbWVn5aWrIjphd9TsQEmAATSOQEwsLCQDrx5s0bfP36FZkyZZI6oavbBgvTs2fP5LbsadOm1VUP32MCTIAJMAEzJ/D69Wt8+vQJ2bJl00nCINeGhu/IO2JR0smYbzIBJsAEmIAgkC5dOlhZWYG0Q5cZJEw0p0TDd2xMgAkwASbABPQhkDp1ahmPoCutQcJEgQ40qcXGBJgAE2ACTEAfAkmSJJFBcrrSGiRMFH1HbhkbE2ACTIAJMAF9CJBmxBS5bZAw6dMITsMEmAATYAJMIDYEWJhiQ4vTMgEmwASYQLwTMNoLtvHeUq6ACTABJsAE9CKw7tRX7L0cBr+HYXj2VoWvYXplg5VwVbLZWsDFzhK1ilqiVZnvM1Vj0HtMDx48gL29vX495lRMgAkwASYQrwRIkCbsCcXj18ZZfSdnOgsM87A2ukDFpB08lBev/0y4cCbABJhAwhAYsCkE3mtCjCZK1GoSOCqTyk5IY2FKSNpcFxNgAkwgHgiQcCzy/RoPJYcXSWUnpDixMMXbo+SCmQATYALxT4CG7+JTlJQeUB1UV0IYC1NCUP7OdZz388PRY8e/cyu4eibABOKDAM0p6TLbFBbw6WqDDwuTYVO3JJGS2mewQODsZPL+9p6R72tmiKkuzbSGHJuMMNEqEsNGjIRdnvxYvWatIX2SeWlx2T1//InpM2fBZ8NGXLx0KU5lnj59BqXKlpc/ugrQN52uMoxx77Cvr2xrlWo1ZHEBAYFo0rQFWrdtj2vXrhujCi6DCTABEyFAHoyuQAe79BY4NSwJqjhEH1030dMaLz+o8FGPaSSqKyG8JpMIFycR6dajF16LZdFp7w5Dbb3PRowaMzbSshcedWpj6uRJSJEiud5VfPr8GS9eBMSYXt90MRZkYIKPHz/J9ip9TJvWFvnz5cN/Hz4gS9YsBpbO2ZkAEzAlAhQSrstImB69UsFzwRecGZ40UtJy+S1R19kKrZeGYH4r/ZaXozrjO4zcJDymeg09kTxFCvy+c4dcrTwSvVhcOPPPWQwdPgK0B0g37y5YtGAexowaIZdZJw9q2owZsSjtx09K61Lt27sHJ44eRjremuTHf6DcAyagQYDeU9Jl/o/DUHvWFzx/GzkV+QCThbd04nYYdvjpP3cUU52Ra4r9FZPwmOrUroURw4fCWqyhRP6SIV7Tvv37JQWnokUwZNBANRGnokWxYeMmsbZfeJfv3b+Pnr37yvvr16wWW3eEr5JOQ38HDx1G5YoVMWhgf3V+OggM/Bdjx0/AP2fPomCBAvD0bIz6dT200tAJDZ+ROJ49dx657e3Qs0d3VP+5mjrdkydPsWjxEpw4eQrBH4NRpnRptG/XBs5OTlppJk6eIocg37x5iwIF8qN5Uy94NfFUp/ksvLk5c+fL9n78+BGNGzVE3rx51PfpgPK2bNNWXps3Zxby5M6N2XPmYd/ff6N8ubIoWaKELOPO3buy/t8mjBVttpfplfIPieHBoA9B8GzcCE5ORTFl2nSkFLtRbt7oI9PxLybABL4PAXp5Vpe9/xj93aYlrOCc0xIVJ32JPlEUd2KqM4ossb5kEsJEHo1ihDmmBf6UtFF9KntDXbt+A1u3bQcN3yVLlgwuLsXlj5Lnkxjyunr1mjwNDf3/4CqJBl3Pl0f7C54SdvHuhgv+F2UeEp9jx08gTapUqFy5krym/OrUxRtXrl6VXpv/xUvo0asP/vrzdykKJBQ030PCSGKYMmVK7Ni5S4rL1s0bpOC9ffsONevUxX///Se3IqZhOT+/C/KH2DT1aiKrGjl6LDZu2qxUK+fTihdzVp/TAfVN6Sf1meypGDqlayQ8a9etFxt3fZZtPXnqFKZMnY6F8+fKdEOGDsf2HTvlMf2xQKJdzNlJ5k0l+s3GBJjAj0nARkw5jahnLVeHuP9SBQqQIA8quRjNy5zaAgHvdQtefPfaJIbyjNnJuh515JAVfen2HzgYTsXd0KhJUyxctARPnz41qKqkQuBOHPXFwf1/IX/+fFJAx074LVKZpUqVxPUrF7F6xTLp/VFbKDiCbIb4cidRKl26FM6dOYXjRw7LIcf3799jzNgJMs2NmzdRVYhdpw7tceHcGZw9fVJ6K3Tzz71/yTS3b99Ri1KL5s3gJ9Jt2rAed+7ek/f1+fXw4SMsXrgAVy76SY+N8hw5ekzOzV25clUtSt29u+La5YvYs3sHHj16rE/RnIYJMIEEIEDLB8XFsqSxAM0/1XayxJPpSeVPqmRAhQKW2Nkric4i41qnzkIj3Ex0wmRvZ4eNG9aBhgdpfoVE4fx5P0yaMhWVqlbHvv1/R0Cg/+nokcORI0d25MuXF4MGhA/zPXjwUNahWQrNbZGXRp4UDfmR3RfpyPz8/eVnZrHvPYkADRtmzpRZXqPIQfKISgthmzN7phzefPHiBS5dvqzeWOvR43BhIPEio3rGjRmF9GJnSMrXoX1beV2fXy7Fi6FihfL4SQzLtWndSmahzR+viui9q9fCvUnyjGhIk7y2okWKoEOHdvoUzWmYABNIAAK0pl1c7HWQCn18QrR+aD29689VmPSn7vDzuNYZm3aaxFBebBqsT1oSgwXz5uCDiETzu+CP/UKMdu7+XQ6NkRelOd+jT3lKmnx58yqHUI6/fv0ayYsgkVAsY8YMIBEJE+lIdG7dui1v7RLtoR9No/Y+ffoMmTNnwvjfJon7u+UckWYa5ZgEkSxnzhywtv7/Y8yr0UYlbXSftM2xYpkyZlQO8fVrqBzuowvZsmbVmvPLkT27Oh0fMAEm8H0J0EKruy7oH7igtDboM7D8mHa+qV42MvQ8pvKozvi2/3+jxXdNCVT+XTGUFSLmVbJkziK2fU8jPQLyCmh4jYIdaN6G5pE0AyyCgoOhfC2ThxWd0bwSeUxkLwJeqJNlyZJZ/UWuvhjFAdVJX+w0lEdeyM/VqmqlovskSjNnzcGq1WtglysXhg4ZjDx5cmP3739ovd+VJUt46De1SdMChIdlDFOE98HDhwgO/qgOsae5OzYmwARMgwCFbeuzaCt5SCm7hc8xR9fydL1036d8tKhrfIeKUz3xL31USwLa5KnT4F7LA7/0H6D1HhN5ImQkViQumYWYKObre0QeUtABhZtHZxRJR14PeUlLl62QybJly4bYBAJQVBvZg/sP5DAfeXdpbdPi8OEjOHLkqNwR+Nz58zINDUdSFJ6bq6vwnN7Ia8ovB4fwIUKam6JoQzI69tkQfqyki+tn8WLFZJQkCXXvvr+ICMNzoPfDVq5aHdciOR8TYALxQIBW/04oS6i6Eq5HcSQ3euw4MUd0ATu2b5FflDEVQ1/k+/8+gEOHfVGxcjUUKeIow7eVlR/q16sn35Wid3py5coph+FGjRknAgm2SC/I0iJ6rd67b78Ms/7y5QtIxMg6d+wQU5O07nft3EnOK23eug3Pnj+HvQgn//vAQdlGCve2tLSEo2NhKZCr165DQGAgnj9/AUWslMIKFyqEsmXKgCLpKHpuwaLFMpydovyMYTREOHr0SAwfMUq2j9pIHl09EVyy6/c9xqiCy2ACTMAIBMiD8X8UFu/r5XlXtkoQb4mQRP8tbARgxiji5ctXePX6Nb6G6p6QU+qi4bGVy5cgqxjqoi9+EikSJfrC7te3j3zZVklL81A0DEdG80CejRujUqWKyu1In8uWLJLBBiRKGTJkgHfXzrEKNqACCxcuhBXLlqC4CDw4feYfrFu/Qc4jtWvbBhMnjJN1UjspcOLTp0/Ytp1eOrbAL317a7XHSrzzNW/uLFSpXBlJkyaVAkvvQw0eNEArnSEnrVu2wM5tW9C3Ty90EYK6QxxXr/6zLNLKyuT/6RjSdc7LBH4oAtOa2oCEI76MyqY6Esp+iI0CaeiMvohja69evcLde/elSNHwnea8kmZZtCQSDcfpOyRH5VLgQHTlaZat65jmbl6+fIns2bNF2T+a+yJBTp06ta5iQC/XEiNjeUtUGf0xsGnzFlkvvTelBHT0GzBIiiUJ4qoVS3W2i28yASaQsARoHTt95pz0bdX32ijwhxAmfSFyOuMRoLm0GjXr4Nbt29KrdHVxAQWWkGdpY2Mjl3qKGLxhvNq5JCbABAwhQAJlylurx7SDLQuTIU8/ked99+4dpk6bgRNiHuvx4yfIKELKCzkURK+ePRBxhYlEjoK7xwSYgBEJsDAZESYXxQSYABNgAoYTiEmYeAbbcMZcAhNgAkyACRiRAAuTEWFyUUyACTABJmA4ARYmwxlyCUyACTABJmBEAixMRoTJRTEBJsAEmIDhBFiYDGfIJTABJsAEmIARCbAwGREmF8UEmAATYAKGE2BhMpwhl8AEmAATYAJGJJDohYk2vrsnliUKCxO7YH0no7ppGwvadTaxGe3MSwvmktFqEavXrJWrRcgL/IsJMAEmEAcCiVaY1qxbjwaNPOFUzBVVfq6BwkWLyf2YSKgS2mgh2jHjJqi3KjdW/bTieMRVx41Vtr7lbNm2HcuWr5TJX4v19aifW7Zu1zc7p2MCTIAJRCJg8tteRGqxHhdWrFwtviDHo67YomFA/37Iny+f3E/o12EjhFg1wZ7dO+SK3HoUZZQkmTJlxKnjR8WSPhmMUp5SyPwFi+ThyuWmsZhq+vTpcfLYEWQwcj+V/vInE2AC5kEg0QkTbZY3Y9Zsua3EnFkz5P5G9Cg96tRG1qxZ0MizqdxfiM4T0pTtNRKyzu9Rl7n083uw5TqZgLkQSHRDeX4X/OX26RPGjlGLkvIwaYXs5s2a4r7YPZaM9kJq0aotTp06jbr1G8GtVFl5nbaQmLdgIX52ryWHABs0boK/xCaBmnblylU0b9kGRZxdULlqdUybPhOhIl90VsujHvb88ae8feLkSVSt7i63q9BM371nb8ydv0B9Kbo6QkJCZP7TZ86IPZ3OyONFi//vNdG8T7cevVDctaTsFwm1rrZRhbTdPG04WK5iZbnB4rARI+XmherGiIPrN26gV59f4OziJlcep80DI1qdeg3w+54/1JdpU8UpU6ejdt36cClRWg6nnvfzU9/nAybABJhARAKJzmO6ceMmUqRILjfki9hZOp/023j1Zdqu/NLlyxg5eizc3WvA3i6XvDd77jzQF33vXj2QM0cO7Nv/N0g0tm3eKD0x2kPJs2lz1K5VU6y03Q13xHYQkyZPlZP/Awf0U5eveUABGOTNkX34ECS3kAgTwQKaRuJAK3iT6aqjf7++6NO7FxYvCRejrl06I3/evDLf9es30KFTF5QtWwYjRwzDw4ePsEJsh07l/TY+fCNCmVDj14cPH9C+Y2dYWVuJzQ+7yD2g1vlsQIfOXbB10wYkT55c7tjbsbM3Uot9qwb274+Pnz7it4mTYW1trW4zFXnv3j28exfeTzofNGQojh49hvbt2iJbtqzYLXa/bdehs9yAMG/ePJSEjQkwASagRSDRCRP9VZ8vbz69N/H777//sGH9GhQtUkQNhrYtX792FUq4uclrdcSwX6ky5XFEfMHSzrMnhIdFm/ONGzsaP6VIIbc4dxQ7077896W6DEMPdNVB26/Xr+uBnTt3yWroWLEx4yfI7eSXLFqg9hgLFXJAF+/uaNGsmbynpFU+l69YJYVr/19/qEWm+s/VUKOWB0igaPv4ZctXIDg4SAoKzZmRVaxQHh71GqrzKOUpn2f+OYsdoo3r165G+XLh3mj9enXlcOpvkyZj+dLFSlL+ZAJMgAmoCSS6oTzajjxZsqTqDsZ0QBP2mqJE6WsK74lEiYa/AgICcV94O+RV0FbtZHly20vhGzFyNK5duy49JRomJK/LWBaXOihcm4b/PETQB4mXYjXEdujkRV6+ckW5pPVJ18uUKa0lMNmzZ4ebmysuXw7Pc/XaNSnAiihRAQULFICjY2GtsjRPqFza+VYRJbpHHhZ5mtG1RTM/HzMBJmCeBP7/7ZVI+l/IwQG37+j/vlCyZMki9ZzeN2rWsjUcRYh5yTLl4F7bAyR4ipGQTZ86WUb60dyRa8kyGD9hopzbUtIY+hmXOkhEyQO0t7PTqp62gM+VM1e0XKi/EfNQAXRNYUm710aXRqsyjRMq185euy2yXHFNaatGcj5kAkyACUgCiU+YxLDVmzdv1d5NxOdMQ33k5URnFPjg1awFrK2ssHb1Sly9dAH3bt9AyRLhw3pKvsaNGuLo4YPYt3cPWrdqgU1btqJHrz7KbZ2fJBRkoSKIQdNCQrXPY1sHhWknSZIkUtAC1REQGCDmeLJpVqc+pusBgYHqc+UgICAA2b/lySrmh6JOEzmfkp/ykgBFNCo3lZiroh82JsAEmEBEAolOmFzEHBB94Q0fMSpiX/FKvADaWISL01xRdHZXTN6/FkER3by7SDFKmTKlHNK7LoIqFHv69KkMXiCBcShYEL/06S3T05wKDafFZJkzZ5JJLn0bJqMTmrOiQAXF9KnDSohnsMinGIkpteek2Apd00iMSayLODpqXlYfFyniiHPnzoMi6BQLDv4If/+L6jy0pfrZs+e00lCZV65eVbJE+qRynz17hgcPH2rdo/kzXUOAWon5hAkwAbMjkOiEiaLa5s2eicO+RzBg0GAZCk4Rab7i3NOrGZKJCDMKGY/OaLiKhvfWrF0vv1Bv3rqFHiIiT3NJI/pipVDy7Tt2glaSePjoEfb/fUAKmeINRVc+XS+QP7+sY8HCxaDQ6Xv372OwiF4TqqbOpk8dbq6uuHjxkuirrxRdyty9W1fs3LUb8xcuku06dvyEDNEuXboU3Fxd1OVrHrRo3hTv3r/DgIGDpTdJ8z99+w+QguzVpLFM2rJ5cxkgQWko8u+CCMvv2buP9NA0y9I8LivmrYo5O8nQdRLL+w8eyHfMDogw824ikpCNCTABJhAlAfEXfpzt/v37cc4b3xk3b9mmqlO3gco+bwFVrtz5VHnyFVS1addBJYaW1FXPmTtfVaZ8JfW5ciDez1EVdysl8zk4FlWJde5UYnhPNXDwrzJJSGioauq0GapCRZxlmnwFC6tEiLbq33//VYqI9FmgUBHVep8N6usHDx1WuZUqI/Pnd3BUiWV9VOJdKpUIXde7jqfPnqnatO+oKli4qGr8b5PUZfts2KiqVqOmLNvRqbhKROSp3r17p74f1cH5836qhp5eqjz5HVR5CxRSCRFXicAHraQHDh5S1ahZR5ZL/Vm4aImq34BBKvE+lzod8Vq7zkd9/vLVK8mGWNnlya+q7l5btW37DvV9PmACTMD8CMSkHRaEJErF0uPiA/EXsL29vR4pv18SGm568vSJ9FKSJk0aq4YEBv6LdOnSykiy6DLKNOnTyTmp6NLQEJn4YsasGdPkMkma6YSYwdbWFjY2NpqXtY5jqiM0NFRGCdLQnqZR31OnToWI1zXTRDymITyaAqN3l6IzGhJNkzq1Ti4R81KE44f/Poi+pol4i8+ZABMwMwIxaUeie48p4vNNm9YW9BMX0wyNji5/TGlomG/ZshVSOCpXqhipGOWF2kg3NC7EVAeFYEdlcek3hZXHZBQCHluj+S8WpdhS4/RMwDwJJLo5JlN7jBRUECC8otkzp3MUmqk9HG4PE2ACJkkg0Q/lmSR1bhQTYAJMwIwJxDSUxx6TGf/j4K4zASbABEyRAAuTKT4VbhMTYAJMwIwJsDCZ8cPnrjMBJsAETJEAC5MpPhVuExNgAkzAjAmwMJnxw+euMwEmwARMkQALkyk+FW4TE2ACTMCMCbAwmfHD564zASbABEyRAAuTKT4VbhMTYAJMwIwJsDCZ8cPnrjMBJsAETJEAC5MpPhVuExNgAkzAjAlEvfpnLIDQ0hJsTIAJMAEmwASMRcBgYTL1bS+MBYrLYQJMgAkwAeMQiMmh4aE843DmUpgAE2ACTMBIBFiYjASSi2ECTIAJMAHjEGBhMg5HLoUJMAEmwASMRICFyUgguRgmwASYABMwDgEWJuNw5FKYABNgAkzASARYmIwEkothAkyACTAB4xBgYTIORy6FCTABJsAEjETA4PeYjNQOLoYJMAEmwASMRGDdqa/YezkMfg/D8OytCl/D9CvYSrgq2Wwt4GJniVpFLdGqjJV+GY2cykIlLK5l0ktS/IJtXOlxPibABJiAcQmQIE3YE4rHr+P8ta7VoJzpLDDMw9roAhWTdvBQntZj4BMmwASYwI9JYMCmEHivCTGaKBEFEjgqk8pOSGNhSkjaXBcTYAJMIB4IkHAs8v0aDyWHF0llJ6Q4sTDF26PkgpkAE2AC8U+Ahu/iU5SUHlAdVFdCmMkJ06NHj/Hy5cuE6LvZ1fHff/9h567dePXqldn1nTvMBBIrAZpT0mW2KSzg09UGHxYmw6ZuSSIltc9ggcDZyeT97T0j39fMEFNdmmkNOTYZYdq8ZSucXdxQsUo1uJYsgyrVauDW7duG9E3mff/+PQ77+mLu/AVYunwFTp46hc+fP8e63C9fvqBU2fLyx8/vgs78HTt3lemovu9pLVq1le1Y77NRNmPylGno80t/DP512PdsFtfNBJiAkQiQB6Mr0MEuvQVODUuCKg7RR9dN9LTGyw8qfNRjGonqSgivySSE6dBhXwwaMhS9evbA1cv+OH7kMFL8lAJNm7XE169xdx3PnT+PajVqol2Hzpg2fSbGT5iI5i3boH5DTzx89ChW/zQoePHFiwD5QyKly8gjobQfPnzQlSze7/3777+yHUFB4e1wcnbCTylSwMWleLzXzRUwASYQ/wQoJFyXkTA9eqXCz9Oi/mO8XH5L1HW2wrBtoQjR7Xipq4mpTnVCAw5MQpgOHjoEN1dXdOrQXn5x5syZAyOG/orXb97g2vXrcerex48f0bptewQG/ovatWpi3pxZmD51Mkq4ueH6jRvw7t4zTuX+yJm8PBvjyqUL6O7d9UfuBredCTCBbwToPSVd5v84DLVnfcHzt5FTWVgAk4W3dOJ2GHb46e8AxFRn5Jpif8UkhMmpaFF07dJJq/W5cuWU58+fv9C6ru/JseMnEBz8ERaC/oxpU1DXow48GzfCsiWLQF/QRQoXxqvXr2VxXs1aoHbd+jhy9Ji6+P1/H5DXSNwiWkhoKCZOnoJyFSujbv1GmDN3frSe3Zq16/Czey24lSqLfgMG4dOnT1rF0RBm2/YdUbSYKzy9msshx4he4tr1PmjQyBOOTsVRoXJV9OrzS6R5uFOnTkuxLVmmHFq1aYcbN29q1UMn8xYshEf9hhg3/jd5j4Y4qd/NWrbGffFOWpt2HWQdNWrWge+Ro1r5qfxuPXrJocGWrdvi5q1b6NKth8y/a/fvWmn5hAkwgYQhQC/P6rL3HxHty7VNS1jBOaclhmzV01X6VlFMdepqj773TGLlh6ZeTSK19+y587CyskIRx8KR7ulzIV26tDIZDcHNmDUH3l07I326dLC1TYOpUyZpFXHt+g1QYMC7d+/U19++fYurV68hU6aM6mvKwfQZM3HB/6I8ffLkKS5dvozgj8EYMmigkkR+Hjh4SJZB4hgWFoZt23fAytJSXf+q1Wswasw4KZ758uWV5Zw9dw5U5uSJE2QZ02bMwtx582Ep8uXMkQNPnz4FBYj4XbiAo4cPSkZ3794DzWsFBQfLPAEBgWjXvhPCVNp/TT179ky2J3u2bDLd27fv5HmKFMnRqYs37t27L9tJotN/4GCcPX1C1ksi16FzFyn0lJG8UCo/9GuoPH75koMpJFD+xQR+EAI2YsppRD1ruTrE/ZcqUIAEeVDJbYDMqS0Q8F634MV3N03CY4rYSfJkJk6agmZNmyDbty/RiGliOnd2ckIxMadCtmTpMriJgIrq7rWlt3Dx0qWYsuu8/1gIx64d28QX90nUq+sh0y5avBQ0p6Np5O3t/+sPnDtzEtWqVpG3fI+GeyIUeThm3AQpSmtWrcCBfXvhe+hvpEubFhs3bQYJFBkFb9QXdWz0WYejvgdx8MA+KRbhgnhFppk+c5YUpTRp0mDr5g3wO3saFSqUBwmUPkaeZYP69XDj6iXMnjldZqH2+X8T36nTZkhRypw5E/bt3YPL/ufh7l5dipI+5XMaJsAE4ocALR8UF8uSxgI0/1TbyRJPpieVP6mSARUKWGJnL92ReXGtMzbtNDlhCgkJQTcx/2Nra4thYp4prmZjY4O1q1eibZvW8suePBaK8lu2YiXqNWgsh+LiWnbP7t2k6JE3NWHcGCku5JnduHlLq8g6Ym6rQP78SJ8+PbyaeMp75G2QEPhfvCS9E8pHfT546DCuC8/tq2gnmSIKY0ePxJzZM1GkiKMcPiPxo76QPX78WH4qw3adO3aQc2hUH7WLGOhj1tbW8O7SGUmTJpUCpXiJ/5wNF0fyHMk6d+oIh4IFkTJlSgwfNlSm16d8TsMEmED8EKA17eJir4NU6OMTovVD6+ldf67CpD91D+3Ftc7YtNMkhvKUBtOX9IBBQ3BXDCn9vnObDIRQ7sXlM3Xq1KAv9pHDh+Ly5Ss4euw4Nm/dKofKyMOpW6eO/MKPbdk07KYY1ZEhQwbpLdE8TYXy5ZRbSJc+nfo4Y8YM6uOwsK9ac0AdOnVR31MOFJE77+eH4SNH46YQvYhzT5SWmD188FBmy5Mnt5IdSZIkkUN/9+7fV1+L7iBVqpRaIpYxY0bpDdFQXaiIigwIDPe8cmTPri7CWgyzZsmcOdbRjeoC+IAJMAGDCdBCq7su6B+4oFQYJIL0lh/TzjfVy0aGnsdUHtUZ32ZSwkQh3eQ5bN6wPs5DeAqw5y9eyDkjEo5sWbOiePFi8ofms8pVqCS/cCnijzwRmgMiC/42R0PHn3S860Sh4IqRt/PmWxBF1ixZlMsxfubMGR7cQV7NH7/v1EpP7UmVKpUMN2/WojUoPL11yxb4+edqwvtKB496DdXpKW1mUS/NPWkO3ZFgBQT8v53qDLE8IAGyt7eT80/Eq1ZNd1kCzclRnWxMgAl8PwK0+rc+i7aSh5Sym3bgVcRWp+ul+z6lp0VdE2LF8fiXvoi9j+bcZ8NG+QLs8qWLUbhwoWhS6X957959cK/lgYaNm2itdPBCfFmTF0BWxNFRftJf/mQUlUfDZOSZHDhwUF6L6teqNWvU0XX0Eq1SHg1z6WvOTkXVScm7KViggPy5c+cuDh3yBQUqkJdHokRDbb/+OhiVK1VEiuQp1PmUA4eCBeThOh8fBAUFyWOK5FOCIZR0cf2kEHuyJUuXY8vW7Th95h9079lb3e+4lsv5mAATMJwArf6dUJZQdSVcj3SQo7DlX4eNkIEE5IEcP3FSnTp79mzIbW8v/2Jv3a49Bg0cIIMB1AmiOajrUVu8VDtDvmBaqWp1uIqXSkPEG2RKUEEhBwcUKuQgcxcr5iznn/7c+xfKV6oqIt0sEfQh/As+quLJY3JxKwVbEaigeA3u7jVA71/pa/Z2djJ8feu27WjStIUMjiDR9PU9gmTJkmHPrh3IkDuDDHQIFeHpzZq3goNDQRHGfURG4mkO63Vo306Gd1N0Hq2akSFDejkUR3NBxnjJd/jQITgr5ptoWHDAoMGyi/SSbo4c2eWwqL595nRMgAkYnwB5MP6PwuJ9vTzvylYJ4i0RIZPwmJYsXSGf1u7f94DekdH8WbfOR96jYbY3r99ohXTLG9H8onmSPWKIrLgQHfpypvdyTpw8Kedk6tSuhW1bNqqH8OiLl4b6aFiMhCa7mEuhVSiiM5q3Kio8HkpLodYkSjPEy7uxtSmTfkObVi1FvZCReCRK5HWtXrEM+fPnQ9q0tpgza4YM3qCQ9L/27cfQIYPF9fBQeKW+8uXKYvzY0bDLlQv0YjH1d+b0qXIIU0ljyCcNh+7YtgWzZkyTwSRjRo2Az9rV6uAHEnI2JsAEvh+BaU1tQMIRX0ZlUx0JZT/URoHkJdC7TbE1Gt66dfsOkidPhnx588qhsajKePPmrRw6o7BofYxCucm7oaE4Q41EjuaVSASiMorGSyfew4qp/7QcEgkXvfdkLNsnBPGu8Jby5s4tRZjKpSWdKgtPlIY+d4tAFQrPZ2MCTOD7EqB17PSZc9K3ld9ro8AfSpj0hcnpjEvgjz/3yjkl8ihLlSqJVGKI8KRYCYIE39XVBds2/9/7NG7NXBoTYAJxIUACZcpbq8e0gy0LU1yeuhnmoWjJhYuW4O7du/gollWi97MoNL5vn15aoeZmiIa7zASYQCwJsDDFEhgnZwJMgAkwgfglEJMwGW8iIn77waUzASbABJiAmRBgYTKTB83dZAJMgAn8KARYmH6UJ8XtZAJMgAmYCQEWJjN50NxNJsAEmMCPQoCF6Ud5UtxOJsAEmICZEGBhMpMHzd1kAkyACfwoBFiYfpQnxe1kAkyACZgJAbMRJloIlVbu/qxjO4uEeObXrl3HuvUbEqKqBK2DVjJf77NRvYsvbXpIK5yzMQEmwARiSyDRC9PJU6fQtn1HOBVzRbUaNVGoiDMaNPKUK2XHFpYx0q/fsAGjx44zyqrfSnvevXsHWhmdPr+X0QK7Q4ePwIOHD2UTNojt4UePGfdd2/S9WHC9TIAJGEYgUQsTbV/etn0n0OKsEydOwLkzJ+GzjvZS+oz6DT21dpE1DKP+uceMGomTx47I7cn1z6U7JS2o2q1HL5PaTZZ2DaZ+pkmTRnfj+S4TYAJMIAKBRC1MEydNlqt/L128UO7hRFthlBaLkG7euB42YvM9ZUuNCEzi9ZQ2/cuUKWO81mEKhVM/9V2l3RTay21gAkzAdAgkWmGifYn+EZvb9endM9IXJG0t0bdvb7z6tiU6PY7q7rXlcNjgX4ehmGsJrFm3Xj6l22K7DBoKpGtlyldCvwGD1LvEUgLaimPK1OmoUq0GiorhwmYtW+Pq1Wsyb1S/Nm3eAq9mLdS3unh3x6LFS9XndHDmn7OoWt0dtH05ma46aAdd8pbI6JPyUd/Jnjx5iiFDh6NcxcqoWLkaho0YqbX9ukwU4RftmEv9qV23PlxKlEbP3n1x3s8vQirIBV1redSDs4sb+g8cDNoCRNM2b90GT6/mmpdw+vQZ2cbiriVRt34jzJg1m3fB1SLEJ0yACRCBRCtMN2/dlnsFubm6RvmkaYO+hfPnqu/dvXdPfiEHBgaiX98+KOHmKr9sG4it2Wnn21EjhqN1qxZys8Eevfqq802cNAUbhdj07tUDc8WmfqnFnkqeTZtFO7dCw4r3HzxQ53/0+DFeij2UNC04OEis4n1PCFKYvKyrjvJly6JZUy+Zjj779BarfYv9oWizwPYdO8P/4kV4d+2CDu3bSsHr0LmLWrg061SOBw0ZKjctrOXujmFiO3cSx3YdOsv2KGmWLluOKdOmo1TJEhg7epTcfLH/t51tlTRv37zR6icFQ3To1EWwDMHIEcPkjr2rVq/FyFGjlSz8yQSYABMIJ6AywO7fv29A7vjNumHjJpVdnvyqD0FBelWUO19Blfgi10r7+PETFZUTFBSsvr5y1WpVvoKFVSK6T16rXLW6avxvk9T3hbei2rhps+rJkyfqa5oHYusIlVupMupL7rU9VOMmTFSf08Ghw4dVuXLnUwkRk9djquPipUsyPX0qNmv2XFUxlxIqIbTKJdmmwkWLqZYsW66+pnlw+sw/spxjx0+oLwshUQnvRiVERV6j/uXJ76CaPGWaOg0d9O7bT+b95+xZeX3xkqUq4XGp0zRt0UrVpGlzlfD+1NfEjrwyz+XLV9TX+IAJMIHETyAm7Ui0HtMnsWcQ7eKaxEb/7YCrVKms9fdKjhzZpTdC26eT5/Do0WOEiLBzGu5ShgHz5MmNHTt3Yeeu3dLDoh1tm3o1kduzaxVmwElc6rh85QrKlCkNmldTjLaMdxOeoBAC5ZLWJ+VJL3bJpa3aFaO5otq1aoLukd26fRsUet+wQX0lifxs1LCB1rnmifhvhitXrsLDo47Wzro1qv8st6ZXytbMw8dMgAmYL4FEK0wODg5ybuae2BJcX0uWNJlWUvpCFZ4HyleqgiLOLqhQuSrGT5iolWbKpN/ksB/Nszi7lIDwDODre0QrjaEncamD5sbs7ewiVU3Xbt+5E+k6XaA8dvZR5BHXAgICpTjTECOZnV0u+an8so8in3JPyRuxPbQjbq6cuaJtj5KfP5kAEzAvAolWmAo5FJRPMrpAhGfPnkEMXel82jQHMmfefHT37opTx4/gzs1r2LB+jVae9OnTy7kq//P/YNGCebC0sER7MZdy7vx5rXTRndCXc2hoiNZtmtPStLjUkS1bNgSI+bKIFhAQgOziXlRG10lEIhrlSSXmzugna9as8nZg4L9ayaLKpyTIkDEDkoh5r6jSBAQGgNrKxgSYABNQCCRaYaL3Z4oXc8bUaTOiDETo3rO3iCxbrHCI8lPMl8CleHG0aN5MfnnaiGFBGpJSjCby6ZyG+ehL271GdaxdvQLJkyfH2bP6CVPmTJlxKcLQ2s2bt5QqZLBATHVYWVrJ9MHB4dF4dFKkiCPOnTsvhx2Vwui+v/9FFHF0VC5pfVIeEmzlJVnl5olTp+HoWFieOhQMF/zjJ04ot+XnsePHtc41T6ytrED56GVnTbt+44Z8xyy69mim5WMmwATMh0CiFSZ6hAtE1N1nMR/UsbO3DAV/+fIlLogvZopWuywExbtLZ51PupAYDrzg748DBw/JpXZ2/74Hy1euUuexEl+4Xbv3QGcR8k1DXPTFv13MNwUFBcmINXVCHQfOzkVxUbwIvHrNWikKIiAAtGqCYvrUUaBAfimMPhs2ypeGw8LChJg2xbv37zBADDFeE8sg0TxO3/4DZHi2V5PGSvFan2XFnFQxZycZ0k0iQtGDFNJ94MBBdPvGytY2DbyaeEIEbGDPH39CBIhABIhgy5ZtWmVFPOnerauch5u/cJF8EVgEWMhQ9NKlS8HN1SVicj5nAkzAnAkYEv8RU2SFIWUbK6+f3wVVy9ZtVfkdHGUEGEW7iaWJVH4X/LWqoKi8zVu2aV2jiD7xnpGK7lG++o08VSLIQR4/e/5cphVDhao6dRvICEBKU7JMOdXWbdu1ytE8iRiVR9F9nbt2k5FulJ/KEgIj61Ci8vSpY/mKVSqK3qMylCjC8+f9VA09vWTZeQsUUnl6NVPFFAEnQtdlBJ5Yukn2Sbzfpdq2fYdmF2REIkXhURqqz6NeQ9WJkyflcXRReVQA9YvYUx5Hp+KSrVhGSatsPmECTCDxE4hJOywIQVyF+YH4i9re3j6u2RM0Hy3eeuPmTRkQENtlcuiF1WDxQxFr0Rl5S58+f0K6tGmjSyKvkwdCnsahv/dppaMoQloI1dA6qJ9JkybVKpvaJqay5BCj1g0dJ6HixeEP/30AeUjRGUXnvRMv1upqc1R56V2u1KlTgbxBNibABMyPQEzaYW0uSOjL2tnJKU7dpTkj+tFlFFJOP7pMhpXv3I1atdwjJaMwc/rRZfrUEVGUqLyY2hVVnTQvpEuUKA+FksdWlChf2rS29MHGBJgAE4iSgNkIU5S9T+CLtEJE7do10a5NmwSumatjAkyACfw4BFiYEvBZbfJZl4C1cVVMgAkwgR+TQKKOyvsxHwm3mgkwASZg3gRYmMz7+XPvmQATYAImR4CFyeQeCTeICTABJmDeBFiYzPv5c++ZABNgAiZHgIXJ5B4JN4gJMAEmYN4EWJjM+/lz75kAE2ACJkeAhcnkHgk3iAkwASZg3gRYmMz7+XPvmQATYAImR4CFyeQeCTeICTABJmDeBFiYzPv5c++ZABNgAiZHwOAliWiVWDYmwASYABNgAsYiYLAw/SjbXhgLGJfDBJgAE2AChhGIyaHhoTzD+HJuJsAEmAATMDIBFiYjA+XimAATYAJMwDACLEyG8ePcTIAJMAEmYGQCLExGBsrFMQEmwASYgGEEWJgM48e5mQATYAJMwMgEWJiMDJSLYwJMgAkwAcMIsDAZxo9zMwEmwASYgJEJGPwek5Hbw8UxASbABJiAgQTWnfqKvZfD4PcwDM/eqvA1TL8CrYSrks3WAi52lqhV1BKtyljpl9HIqSxUwuJaJr0kxS/YxpUe52MCTIAJGJcACdKEPaF4/DrOX+taDcqZzgLDPKyNLlAxaQcP5Wk9Bj5hAkyACfyYBAZsCoH3mhCjiRJRIIGjMqnshDQWpoSkzXUxASbABOKBAAnHIt+v8VByeJFUdkKKEwtTvD1KLpgJMAEmEP8EaPguPkVJ6QHVQXUlhJmcMAUFBeHNm7cJ0Xezq+O///7Dzl278erVK7PrO3eYCSRWAjSnpMtsU1jAp6sNPixMhk3dkkRKap/BAoGzk8n723tGvq+ZIaa6NNMacmwywvTP2XOoWt0djk7FUcy1BEqWKYdt23cY0jeZNzQ0FFT2ipWrMWfufPx94CBev3kT63K/fPmCUmXLyx8/vws683fs3FWmW7p8hc508X2zRau2sh3rfTbKqiZPmYY+v/TH4F+HxXfVXD4TYAIJQIA8GF2BDnbpLXBqWBJUcYg+um6ipzVeflDhox7TSFRXQnhNJhEufl9E97Vo1QYNG9THyuVLkSRJEqxavQb9BgxC9mzZULp0qTg94oCAQHj36ImIQmJrmwZzZs1EpYoV9C6XghdfvAiQ6UmkdBl5JJT2w4cPupLF+71///1XtiMoKLwdTs5O+GnHTri4FI/3urkCJsAE4p8AhYTrMhKmR69U8FzwBWeGJ42UtFx+S9R1tkLrpSGY38om0v2oLlCd8R1GbhIe0/79B5A2rS2mTPoNdrlyIWuWLPh18CCkT5cOx0+eioqNXtf69OsvRalw4UKYOmUS5s+djSaejfD27TuQV/Pq9Wu9ykksibw8G+PKpQvo7t01sXSJ+8EEzJoAvaeky/wfh6H2rC94HsXsiIUFMFl4Syduh2GHn/5zRzHVqas9+t4zCWGqUqUS1qxcAQsipWEpU6ZEaKge/qVGHuWQxOfMmX/k6eCBA0Bfyh51amPalMno5t0FDevXw7179+R9r2YtULtufRw5ekzJjv1/H5DXWrdtr76mHISI4cGJk6egXMXKqFu/kRwi/Po16ge7Zu06/OxeC26lykoP8NOnT0ox8nPzlq1o274jihZzhadXc8ydvwARy1q73gcNGnnKYc4KlauiV59f8PLlS61yTp06De/uPeUQaKs27XDj5k2t+3Qyb8FCeNRviHHjf5P3Dvv6yj42a9ka5LW2addB1lGjZh34HjmqlZ/K79ajlxwabNm6LW7euoUu3XrI/Lt2/66Vlk+YABNIGAL08qwue/8R0b5c27SEFZxzWmLIVt1zVBHLj6nOiOnjcm4SQ3kF8ueP1PY9f/yJFwEBqFunTqR7+lxImfInOSRIQrB8xUrkypkTefLkllmHDBqoVcS16zdAgQHv3r1TX3/79i2uXr2GTJkyqq8pB9NnzMQF/4vy9MmTp7h0+TKCPwYjYrkHDh6SZZDghoWFyTkzK0tL6b1RZhquHDVmnBTkfPnyynLOnjsHKnPyxAmy/GkzZmHuvPmwFPly5siBp0+f4tGjx/C7cAFHDx+ElZUV7t69Jz3AoOBgmYeGMNu174QwlfZfU8+ePZPtoeFRMhJv6mOKFMnRqYu3EOr7sp0kOv0HDsbZ0ydkvSRyHTp3QXCw+FcuLDDwX1l+6NdQefzyJQdTSDD8iwn8IARsxJTTiHrWcnWI+y9VoAAJ8guSi9G8zKktEPBet+DFdzdNwmNSOkl/wZP3QEEQK1etwfq1q+DoWFi5HatPa2trtGzRTOY5euw4qvxcA2XKV8Iv/Qfi0GFf4YnF7q8EzcofC+HYtWOb+OI+iXp1PeStRYuXguZ0NO358xfY/9cfOHfmJKpVrSJv+R4N90TI4xkzboIUpTWrVuDAvr3wPfQ30qVNi42bNoMEiuz9+/eoL+rY6LMOR30P4uCBfVIswgXxikwzfeYskCilSZMGWzdvgN/Z06hQoTxIoPQxEpwGwoO8cfUSZs+cLrNQ+/y/ie/UaTOkKGXOnAn79u7BZf/zcHevLkVJn/I5DRNgAvFDgJYPiotlSWMBmn+q7WSJJ9OTyp9UyYAKBSyxs1cSnUXGtU6dhUa4aVLCZJvGFgULFkBue3vcvXcXu3fvMSi0ecSwoRj262DkyZ1bdps8hu1i8r99x85oJYboFA8gApMYT3t274ZiIpCAvKkJ48ZIcaHgiBs3b2nlrVOrJsgbTJ8+PbyaeMp75G1Qvf4XL0nvhPKFhITg4KHDuC48t6/CsyJTRGHs6JGYM3smihRxlMNnJH7kfZE9fvxYfirDdp07dkAJNzdZH7XLxka/yUwSce8unZE0aVIpUIqXSNGMZORVkXXu1BEOBQuChliHC7aUno0JMIHvR4DWtIuLvQ5SoY9PiNYPrad3/bkKk/7U/Ud7XOuMTTtNYihPaXDx4sVAP2Q0tFa+UhWkSpUKgwb2V5LE6pOG0Lp07iR/bt++gzP/nMXW7dtx4YI/aM5k/YYNoC/z2BoNuymWOnVqZMiQQXpLNE9ToXw55RbSpU+nPs6YMYP6OCzsq9YcUIdOXdT3lANF5M77+WH4yNG4KUQv4twTpSVhe/jgocymDFXSCUU20tDfvfv35T1dv1KlSqklYhkzZpTeEA3VhYq5s4DAcM8rR/bs6mKsxRBilsyZ8fDRI/U1PmACTCBhCdBCq7suRD2/raslQZ+B5ce08031spGh5zGVR3XGt5mEMNFcR7JkScWP8CW/GQlSo4YNsGPnrjgJE80XPX/xAtZW1iAhyZ8/n/yh4b3qNWuDhOrateuyNiXoIvjbHA1d/PRZPLloTAkbp9vk7bz5Ft1H0YT6Wk4x50VGXs0fv+/Uykbtof5TuHmzFq1B4emtW7bAzz9XE95QOnjUa6hOT2kzi3pp7klz6I4EK0DM0RlqJED29nZy/una9euoVdNdFkl/OFCdbEyACXw/AhS2rc+ireQhpeymHXgVsdXpeum+T+lpUdf4DhWneuJf+qiWGKxXn74YNPjXSKloyMtWhJHHxZ49ew73Wh4yIu7c+fPqIt69e48P/4W/11PE0VFep7/8ySgqj4bJyDM5IF7Ejc5WrVkDJbqOXqIlr4KMhrn0NWenouqk5N0ULFBA/ty5cxeHDvmChh0vX74iRYmG2n4VQ5KVK1VEiuQp1PmUAwcx/Em2zscHtHIGGUXyKcEQ8oIBv2h4kGzJ0uXYsnU7Totox+49e6v7bUDRnJUJMAEDCdDq3wllCVVXwvVIB7mmXk3Qu28/4dnkQ/36daUXsW/f39i6bbuIdBsgc967dx+t27UX3tMAGQygozh5q1AhBzgVLSoj3Zo2awlXVxc5N0LDeLTyA3kk1YUHQlasmDNu3b6NP/f+JYYPq4pIN0sEfQj/gpcJIvwij8nFrZQQzbRqr8HdvQZy5swRIWX0p/Z2dvBs3Ej2sUnTFjI4gqIQfX2PSM9xz64dyJA7gwx0oECNZs1bwcGhoAjjPiIj8TSH9Tq0byfDuyk6z7VkGTG0mF4OxdFckDFe8h0+dAjOivkmGhYcMGiw7BS9pJsjR3YZQRh9L/kOE2AC8U2APBj/R2Hxvl6ed2WrBPGWiJdJeEz0fhFFg23asgUVK1dDmXIVsWjJEowY9quccKeG0jDbm9dvtEK66bou27B+jZzMpzhIml+iAIM3Igy8aJEi2L1zG3LlCh9Ooy9emtuiYTEansou5lJ69ewRbdEUkFBUeDyUlkKtSZRmTJ0cbfrobtALxW1ataTmyUg8EiXyulavWCaHHeml4zmzZshIPQpJ/2vffgwdMli8jJxWq8jy5cpi/NjR8uXkjx8/SjGaOX0qsmXNqpUuric0j7Zj2xbMmjENbdu0xphRI+CzdrU6+IGEnI0JMIHvR2BaUxuQcMSXUdlUR0KZyW0USPNNNKeiRIZpgiAvgd7bia2Rx3Hn7l18FEODBcUXP4lJVEaLx1LdFBatj1EoN82L0VCcoUYiR14ciUBURtF46cRKGDH1n5ZDIuGi956MZfuEIN4V3lJeEd1IIkxGQQ+Vq1aXQ58k8s5OTsaqjsthAkwgjgRoHTt95pz0Lf57bRRocsKkLzBOl3AE/vhzr5xTIo+yVKmSSCWGCE+KqEaaz6Ih0m2bN0pvM+FaxDUxASagiwAJlClvrf5ARDDbi9eCojMWpujI8HUtAjQMunDRErHKhPA8xWoa9H4Whcb37dNLK9RcKxOfMAEmwASiIMDCFAUUvsQEmAATYALfj0BMwmS8iYjv10eumQkwASbABBIRARamRPQwuStMgAkwgcRAgIUpMTxF7gMTYAJMIBERYGFKRA+Tu8IEmAATSAwEWJgSw1PkPjABJsAEEhEBFqZE9DC5K0yACTCBxECAhSkxPEXuAxNgAkwgEREwK2Gi/ZI0t0//Hs+RttpYt37D96g6XuuklczX+2xU7+JLmx7SCudsTIAJMIHYEkj0wkTbR/Tq8wvcSpWVa7s5FXeTGxDSSgbfw2hzwtFjxxll1W+l/SS2tDL69xRdWmB36PARePAwfNPCDWJ7+NFjxn3XNil8+JMJMIEfi0CiFiba8qGxV3Oxf9AZ9OjmjRNHfbF3z24UL1YMnbp4yy0nEvpxjRk1EiePHZFbcBirblpQtVuPXia1m+zI4UNlP9OkSWOsbnI5TIAJmAkBk9iPKb5Y0yZ+5DGtWrEUVSpX/lZNdrmVBHkXCxcvkXsixVf9UZVLm/5FtXJ6VGl/5GvUT31Xaf+R+8ltZwJMwPgEErXHdOTIUbkZ4P9FKRwgrZLdp3dPZMyYEc+eP5cXq7vXlsNhg38dhmKuJbBm3Xp5nbZgb9u+o7xWpnwl9BswSL1LLCWgrTimTJ2OKtVqoGgxVzRr2RpXr16TeaP6tWnzFng1a6G+1cW7OxYtXqo+pwPaO6pqdXfQ9uVkuuog8SVviYw+KR/tyUT25MlTDBk6HOUqVpb7XA0bMVJr+3WZKIpfG8UwXItWbUHDnq3btse27TsipaIFXWt51IOzixv6DxwM2gJE0zZv3QZP4a1q2unTZ2Qbi7uWRN36jTBj1mzeBVcTEB8zASYgCSRaYVKpVLh56xbcXF2jfNSuLi7YuH6tejO9u/fuSYEJDAxEv759UMLNVX7ZNmjcBCEhoRg1Yjhat2qBEydPokevvuoyJ06ago1CbHr36oG5YlO/1GJPJc+mzaKdrxjraQAACFJJREFUW6E9nygIQ7FHjx/jpdhDSdOCg4PEKt73hCCFycu66ihftiyaNfWS6eizT2+x2rfYH4qGMdt37Az/ixfh3bULOrRvKwWvQ+cuauHSrFM5JuH8ddgIFCiQD+O+bT5IwrP79z1KEixdthxTpk1HqZIlMHb0KBDr/t92tlUSvRW7BGv2k4IhOnTqIliGYOSIYXLH3lWr12LkqNFKFv5kAkyACYQTEF8qcbb79+/HOW98ZxRfiqpcufOpRJCDXlXlzldQJb7ItdI+fvxEtWHjJlVQULD6+spVq1X5ChZWff78WV6rXLW6avxvk9T3hbeiEh6H6smTJ+prmgfC01C5lSqjvuRe20M1bsJE9TkdHDp8WLZdiJi8HlMdFy9dkunpU7FZs+eqirmUUAmhVS7JNhUuWky1ZNly9TXNA7FJouzb1GkzNC+rRLCGivKFhYWpqH958juoJk+ZppWmd99+sg3/nD0rry9eslTlUqK0Ok3TFq1UTZo2VwnvT31N7Mgr81y+fEV9jQ+YABNI/ARi0o5E6zF9EnsGkSVLljRcgfX4XaVKZa1UOXJkl94I7XhLw2qPHj1GiNgNl3a5ffX6tUybJ09u7Ni5Czt37ZYeFu1o29SridyeXaswA07iUsflK1dQpkxpOVypVE1bxrsJT1AIgXJJ6/PWrduyb/Xr1dW6Xr9ePemBUcTdrdu3QTsCN2xQXytNo4YNtM41T8R/M1y5chUeHnW0dtatUf1nuZswtZWNCTABJqAQSLTClC9vXrmBHc0R6WvJkibTSkpfqMLzkOHlRZxdUKFyVYyfMFErzZRJv8lhPxrucnYpAeEZwNf3iFYaQ0/iUgf1297OLlLVdO32naiZKNft7HJp5VPKoTJpiJEsUhr7yHUphQQEBEphV8pRrtNcX66cuaJtj5KOP5kAEzAvAolWmCgqLF++vLgSTSACzcGcEtuDKwEGUT12mgOZM28+unt3xanjR3Dn5jVsWL9GK2n69OmxcP5c+J//B4sWzIOlhSXai7mUc+fPa6WL7oS+nENDQ7Ru05yWpsWljmzZsiFAzJdFtICAAGQX96IyykMWGPiv1u2AwAB5TvmyZs0qjyOlEeITnWXImAFJxLwXCVREo7KVeiPe43MmwATMk0CiFSZ6nJUrVcR2EVF24YJ/pKc7d/4CePfoqXNbcDFfApfixdGieTP55WljYyOHpJTCaCKfhqhI3FKJoAf3GtWxdvUKJE+eHGfP6idMmTNlxqUIQ2s3b95SqpDBAjHVYWVpJdMHB4dH49FJkSKOOHfuvByaUwqj+/7+F1HE0VG5pPXpWLgQSChPnjqldf3kydOSU4EC+eFQsKC8d/zECa00x44f1zrXPLG2spL5IpZ7/cYNUDBIdO3RLIOPmQATMB8CiVqYBvT7Ba6uLujeq49cBojeaaI5komTp2DJ0uXo1KGDmIPSHr7TfPSFHBxwwd8fBw4ekkvtUGTa8pWr1EmsxBdu1+490FmEfNMQF33xbxfzTUFBQTJiTZ1Qx4Gzc1FcvHgJq9esle9ciYAA0KoJiulTBwkGCaPPho24cfMmRJCCENOmePf+HQaIIUZaBonmcfr2HyDDs72aNFaK1/r86aef0K5ta4wZNwF7/vhThpvT3NnkqdPQtXMnKU62tmng1cQTImBDphEBIhABItiyZZtWWRFPunfrKufh5i9cJF8EPnb8BHr27ovSpUuJyEmXiMn5nAkwAXMmYEj8R0yRFYaUbay8IhRb1aNXH5V430ZGgFGknniPRiXCorWqoKi8zVu2aV37EBSkEu8Zqege5avfyFMlvqjlsXj/SaYV7yyp6tRtoLLLk19eL1mmnGrrtu1a5WieRIzKo+i+zl27yUg3qoPKEgIjy1Ki8vSpY/mKVSqK3qMylCjC8+f9VA09vWTZeQsUUnl6NVPFFAFHUXOjxoxVlShdVpZVqkx51YSJk2REntIPajNF4RUq4izTeNRrqBJh9PI4uqg8ykv9qlajpkzn6FRcshUvOivF8icTYAJmQiAm7bAgDnEV5gcPHsDe3j6u2RM0H3kRNESWRvzFn+3bPIm+DaAXVoPFT/p06aLNQt7Sp8+fkC5t2mjT0A16qZS8kUN/79NKR1GEtBCqoXUI0UDSpEm1yqa2iRE6OcSodSOGE4o81NUeis57J16s1ZUmqipo+C516lQgb5CNCTAB8yMQk3Yk6iWJNB+3paUlChVy0Lyk9zHNGdGPLqOQcvrRZTKsfOdu1KrlHikZDSnqGlakDPrUEVGUlHyRKtTjQkyCQwEmMaWJqpq0aW2juszXmAATYAKSgNkIkyk8b1ohonbtmmjXpo0pNIfbwASYABMwSQIsTAn4WDb5rEvA2rgqJsAEmMCPSSBRR+X9mI+EW80EmAATMG8CLEzm/fy590yACTABkyPAwmRyj4QbxASYABMwbwIsTOb9/Ln3TIAJMAGTI8DCZHKPhBvEBJgAEzBvAgYJE62rZsD7ueZNnnvPBJgAEzBDAqQZpB26zCBhokVNaaUBNibABJgAE2AC+hAgzSDt0GUGCRMt+qlr2whdFfM9JsAEmAATMD8CpBmkHbrMIGFKkyaN3JbhvVgvjY0JMAEmwASYgC4CpBW0XRBphy4zaBFXKpgW8gwUG9KRa0ZbL9BabTGNH+pqEN9jAkyACTCBxEOA5pRo+I48JRKlTJkygdbZ1GUGC5NSuNi+QO5DRBVzQIRChT+ZABNgAuZNgBwVclxo+C4mT0khZTRhUgrkTybABJgAE2AChhAwaI7JkIo5LxNgAkyACTCBqAiwMEVFha8xASbABJjAdyPAwvTd0HPFTIAJMAEmEBWB/wHcTmigFTcdQwAAAABJRU5ErkJggg==;" vertex="1" parent="1">
                    <mxGeometry x="381.0049928501676" y="105.0005776541575" width="422" height="229" as="geometry"/>
                </mxCell>
                <mxCell id="24" value="Descripcion" style="html=1;shadow=0;dashed=0;shape=mxgraph.bootstrap.rrect;rSize=5;fillColor=none;strokeColor=#999999;align=left;spacing=15;fontSize=14;fontColor=#6C767D;" vertex="1" parent="1">
                    <mxGeometry x="67" y="166" width="160" height="83" as="geometry"/>
                </mxCell>
                <mxCell id="38" style="edgeStyle=none;html=1;exitX=0.5;exitY=1;exitDx=0;exitDy=0;fontColor=#FFFFFF;" edge="1" parent="1" source="27">
                    <mxGeometry relative="1" as="geometry">
                        <mxPoint x="-572.552250788762" y="182.35108595628003" as="targetPoint"/>
                    </mxGeometry>
                </mxCell>
                <mxCell id="40" style="edgeStyle=none;html=1;exitX=0.5;exitY=1;exitDx=0;exitDy=0;fontColor=#FFFFFF;strokeColor=#000000;entryX=0.5;entryY=0;entryDx=0;entryDy=0;" edge="1" parent="1" source="27" target="34">
                    <mxGeometry relative="1" as="geometry">
                        <mxPoint x="-536.7111841837565" y="178.0697898864746" as="targetPoint"/>
                    </mxGeometry>
                </mxCell>
                <mxCell id="42" style="edgeStyle=none;html=1;exitX=0.5;exitY=1;exitDx=0;exitDy=0;entryX=0.5;entryY=0;entryDx=0;entryDy=0;fontColor=#FFFFFF;strokeColor=#000000;" edge="1" parent="1" source="27" target="36">
                    <mxGeometry relative="1" as="geometry"/>
                </mxCell>
                <mxCell id="27" value="APP" style="rounded=1;whiteSpace=wrap;html=1;fillColor=#1ba1e2;fontColor=#ffffff;strokeColor=#006EAF;" vertex="1" parent="1">
                    <mxGeometry x="-473" y="71" width="120" height="60" as="geometry"/>
                </mxCell>
                <mxCell id="39" style="edgeStyle=none;html=1;exitX=0.5;exitY=1;exitDx=0;exitDy=0;entryX=0.5;entryY=0;entryDx=0;entryDy=0;fontColor=#FFFFFF;" edge="1" parent="1" source="34" target="35">
                    <mxGeometry relative="1" as="geometry"/>
                </mxCell>
                <mxCell id="41" style="edgeStyle=none;html=1;exitX=0.5;exitY=1;exitDx=0;exitDy=0;fontColor=#FFFFFF;strokeColor=#000000;" edge="1" parent="1" source="34" target="35">
                    <mxGeometry relative="1" as="geometry"/>
                </mxCell>
                <mxCell id="34" value="Navbar" style="rounded=1;whiteSpace=wrap;html=1;" vertex="1" parent="1">
                    <mxGeometry x="-635" y="186" width="120" height="60" as="geometry"/>
                </mxCell>
                <mxCell id="35" value="Contador" style="rounded=1;whiteSpace=wrap;html=1;fillColor=#6d8764;fontColor=#ffffff;strokeColor=#3A5431;" vertex="1" parent="1">
                    <mxGeometry x="-635" y="293" width="120" height="60" as="geometry"/>
                </mxCell>
                <mxCell id="43" style="edgeStyle=none;html=1;exitX=0.5;exitY=1;exitDx=0;exitDy=0;entryX=0.411;entryY=0.005;entryDx=0;entryDy=0;entryPerimeter=0;fontColor=#FFFFFF;strokeColor=#000000;" edge="1" parent="1" source="36" target="37">
                    <mxGeometry relative="1" as="geometry"/>
                </mxCell>
                <mxCell id="48" style="edgeStyle=none;html=1;exitX=0.5;exitY=1;exitDx=0;exitDy=0;entryX=0.5;entryY=0;entryDx=0;entryDy=0;fontColor=#FFFFFF;strokeColor=#000000;" edge="1" parent="1" source="36" target="44">
                    <mxGeometry relative="1" as="geometry"/>
                </mxCell>
                <mxCell id="36" value="Container" style="rounded=1;whiteSpace=wrap;html=1;fillColor=#6a00ff;fontColor=#ffffff;strokeColor=#3700CC;" vertex="1" parent="1">
                    <mxGeometry x="-322" y="184" width="120" height="60" as="geometry"/>
                </mxCell>
                <mxCell id="37" value="&lt;font color=&quot;#ffffff&quot;&gt;Formulario&lt;/font&gt;" style="rounded=1;whiteSpace=wrap;html=1;fillColor=#fa6800;fontColor=#000000;strokeColor=#C73500;" vertex="1" parent="1">
                    <mxGeometry x="-418" y="308" width="120" height="60" as="geometry"/>
                </mxCell>
                <mxCell id="49" style="edgeStyle=none;html=1;exitX=0.5;exitY=1;exitDx=0;exitDy=0;entryX=0.5;entryY=0;entryDx=0;entryDy=0;fontColor=#FFFFFF;strokeColor=#000000;" edge="1" parent="1" source="44" target="45">
                    <mxGeometry relative="1" as="geometry"/>
                </mxCell>
                <mxCell id="50" style="edgeStyle=none;html=1;exitX=0.5;exitY=1;exitDx=0;exitDy=0;entryX=0.5;entryY=0;entryDx=0;entryDy=0;fontColor=#FFFFFF;strokeColor=#000000;" edge="1" parent="1" source="44" target="46">
                    <mxGeometry relative="1" as="geometry"/>
                </mxCell>
                <mxCell id="51" style="edgeStyle=none;html=1;exitX=0.5;exitY=1;exitDx=0;exitDy=0;entryX=0.5;entryY=0;entryDx=0;entryDy=0;fontColor=#FFFFFF;strokeColor=#000000;" edge="1" parent="1" source="44" target="47">
                    <mxGeometry relative="1" as="geometry"/>
                </mxCell>
                <mxCell id="44" value="ListaTareas" style="rounded=1;whiteSpace=wrap;html=1;fontColor=#FFFFFF;" vertex="1" parent="1">
                    <mxGeometry x="-214" y="308" width="120" height="60" as="geometry"/>
                </mxCell>
                <mxCell id="45" value="Tarea" style="rounded=1;whiteSpace=wrap;html=1;fontColor=#FFFFFF;" vertex="1" parent="1">
                    <mxGeometry x="-345" y="433" width="120" height="60" as="geometry"/>
                </mxCell>
                <mxCell id="46" value="Tarea" style="rounded=1;whiteSpace=wrap;html=1;fontColor=#FFFFFF;" vertex="1" parent="1">
                    <mxGeometry x="-214" y="433" width="120" height="60" as="geometry"/>
                </mxCell>
                <mxCell id="47" value="Tarea" style="rounded=1;whiteSpace=wrap;html=1;fontColor=#FFFFFF;" vertex="1" parent="1">
                    <mxGeometry x="-83" y="433" width="120" height="60" as="geometry"/>
                </mxCell>
                <mxCell id="52" value="" style="shape=image;verticalLabelPosition=bottom;labelBackgroundColor=#ffffff;verticalAlign=top;aspect=fixed;imageAspect=0;image=data:image/png,iVBORw0KGgoAAAANSUhEUgAAAEcAAABPCAYAAAC549hyAAABQ2lDQ1BJQ0MgUHJvZmlsZQAAKJFjYGASSSwoyGFhYGDIzSspCnJ3UoiIjFJgf8bAySDGwMGgzcCWmFxc4BgQ4ANUwgCjUcG3awyMIPqyLsis3vfuQdMvv15ekWU9QY3pXSemehTAlZJanAyk/wBxanJBUQkDA2MKkK1cXlIAYncA2SJFQEcB2XNA7HQIewOInQRhHwGrCQlyBrJvANkCyRmJQDMYXwDZOklI4ulIbKi9IMDt467gFurjo+DhQsC1ZICS1IoSEO2cX1BZlJmeUaLgCAylVAXPvGQ9HQUjAyMjBgZQmENUf74BDktGMQ6EWCHQj1aeDAxMuQixhAAGhh0fQF5FiKnqMDDwHGdgOBBbkFiUCHcA4zeW4jRjIwibezsDA+u0//8/hzMwsGsyMPy9/v//7+3///9dxsDAfAuo9xsAqPZflUpwRJgAAABWZVhJZk1NACoAAAAIAAGHaQAEAAAAAQAAABoAAAAAAAOShgAHAAAAEgAAAESgAgAEAAAAAQAAAEegAwAEAAAAAQAAAE8AAAAAQVNDSUkAAABTY3JlZW5zaG907ZoqiAAAAdRpVFh0WE1MOmNvbS5hZG9iZS54bXAAAAAAADx4OnhtcG1ldGEgeG1sbnM6eD0iYWRvYmU6bnM6bWV0YS8iIHg6eG1wdGs9IlhNUCBDb3JlIDYuMC4wIj4KICAgPHJkZjpSREYgeG1sbnM6cmRmPSJodHRwOi8vd3d3LnczLm9yZy8xOTk5LzAyLzIyLXJkZi1zeW50YXgtbnMjIj4KICAgICAgPHJkZjpEZXNjcmlwdGlvbiByZGY6YWJvdXQ9IiIKICAgICAgICAgICAgeG1sbnM6ZXhpZj0iaHR0cDovL25zLmFkb2JlLmNvbS9leGlmLzEuMC8iPgogICAgICAgICA8ZXhpZjpQaXhlbFlEaW1lbnNpb24+Nzk8L2V4aWY6UGl4ZWxZRGltZW5zaW9uPgogICAgICAgICA8ZXhpZjpQaXhlbFhEaW1lbnNpb24+NzE8L2V4aWY6UGl4ZWxYRGltZW5zaW9uPgogICAgICAgICA8ZXhpZjpVc2VyQ29tbWVudD5TY3JlZW5zaG90PC9leGlmOlVzZXJDb21tZW50PgogICAgICA8L3JkZjpEZXNjcmlwdGlvbj4KICAgPC9yZGY6UkRGPgo8L3g6eG1wbWV0YT4KmQwYDgAAAx1JREFUeAHtm09rKkEQxMeHgqgHD4bgSbyoB69+/w/g1YMGIXiKogcPKoJC3itDLx0w9WbU6CLVYNZMr9u1P2t2/NMWPv9FUJwl8OfsqAZPBASHGEFwBIcQICk5R3AIAZKScwSHECApOUdwCAGSknMEhxAgKTmHwCmSXHJqt9uF5XIZ1ut12G634XA4hN9+018oFEKpVArVajXU6/Xw8vISKpVKsvZzDyjc4iMLQJnNZmGxWJyrcfex19fX0Gq1roZ0NZyPj4/w9vb26w5JJQxHdTqd0Gw2Ux+a7X8VHLjl/f09OxjuwNp2q9VqoVi86cz9Vgv/HI/HsNlsTlMZ0xk3H+12++QiPxZ7/2I4cMxkMsnqAEKv1wuNRiMbe8Sd1WoVxuPxCZrV73a7FznoIji4xgyHw2wqwSH9fj+Uy2XT89Dtfr8Po9Ho5CgIwRQbDAbJ16CLlnJMJ1uF4Jg8gQEMPEnQZFMaWqE5NZLhwDV+VcJUyotj/MlDE7RZQDO0p0QyHLyOscCF99HXGNNybgtt0GjhtdsY2ybD8auBL8yKPDLnNXrtMZqS4eCVr4UvbGN523qNXnuMzmQ4eEtggVUq7+E1eu0xupPh2CqFg9tqEFPoUft4jV57jJ5kODEHfZZ9BIc8k4IjOIQASck5gkMIkJScIziEAEnJOYJDCJCUnCM4hABJyTmCQwiQlJwjOIQASck5gkMIkJScIziEAEnJOYJDCJCUnHNLOGjnsEDjUN7Da/TaY3QnOwfNiRboqMp7eI1ee4zuZDjo2rRI/WLeHnfPrdfotcdoSIbjv5j3hWOKPWIfr9Frj9GSDAd9vhYojB68vMZ8Pv/WQOm1x2hOhoMGaPT5WqA5ET14eQtomk6nmSxoTm3eToaDamiAtis/VgM0J+YJkDVM2koFrdCcGhd1k6JIXlttMZXgGAMDrXdttUVBhJq0vzj8+Fft/T+i+UrohyH/AYQ0IOknRRGgnmGXi5byZzjxmHMQHEJJcASHECApOUdwCAGSknMEhxAgKTlHcAgBkpJzBIcQICk5R3AIAZKScwSHECCpv5DNSnQLSnIJAAAAAElFTkSuQmCC;" vertex="1" parent="1">
                    <mxGeometry x="741" y="131" width="40.45" height="45" as="geometry"/>
                </mxCell>
                <mxCell id="53" value="" style="shape=image;verticalLabelPosition=bottom;labelBackgroundColor=#ffffff;verticalAlign=top;aspect=fixed;imageAspect=0;image=data:image/png,iVBORw0KGgoAAAANSUhEUgAAAEoAAABcCAYAAADJXyP3AAABQ2lDQ1BJQ0MgUHJvZmlsZQAAKJFjYGASSSwoyGFhYGDIzSspCnJ3UoiIjFJgf8bAySDGwMGgzcCWmFxc4BgQ4ANUwgCjUcG3awyMIPqyLsis3vfuQdMvv15ekWU9QY3pXSemehTAlZJanAyk/wBxanJBUQkDA2MKkK1cXlIAYncA2SJFQEcB2XNA7HQIewOInQRhHwGrCQlyBrJvANkCyRmJQDMYXwDZOklI4ulIbKi9IMDt467gFurjo+DhQsC1ZICS1IoSEO2cX1BZlJmeUaLgCAylVAXPvGQ9HQUjAyMjBgZQmENUf74BDktGMQ6EWCHQj1aeDAxMuQixhAAGhh0fQF5FiKnqMDDwHGdgOBBbkFiUCHcA4zeW4jRjIwibezsDA+u0//8/hzMwsGsyMPy9/v//7+3///9dxsDAfAuo9xsAqPZflUpwRJgAAABWZVhJZk1NACoAAAAIAAGHaQAEAAAAAQAAABoAAAAAAAOShgAHAAAAEgAAAESgAgAEAAAAAQAAAEqgAwAEAAAAAQAAAFwAAAAAQVNDSUkAAABTY3JlZW5zaG90F0xwlgAAAdRpVFh0WE1MOmNvbS5hZG9iZS54bXAAAAAAADx4OnhtcG1ldGEgeG1sbnM6eD0iYWRvYmU6bnM6bWV0YS8iIHg6eG1wdGs9IlhNUCBDb3JlIDYuMC4wIj4KICAgPHJkZjpSREYgeG1sbnM6cmRmPSJodHRwOi8vd3d3LnczLm9yZy8xOTk5LzAyLzIyLXJkZi1zeW50YXgtbnMjIj4KICAgICAgPHJkZjpEZXNjcmlwdGlvbiByZGY6YWJvdXQ9IiIKICAgICAgICAgICAgeG1sbnM6ZXhpZj0iaHR0cDovL25zLmFkb2JlLmNvbS9leGlmLzEuMC8iPgogICAgICAgICA8ZXhpZjpQaXhlbFlEaW1lbnNpb24+OTI8L2V4aWY6UGl4ZWxZRGltZW5zaW9uPgogICAgICAgICA8ZXhpZjpQaXhlbFhEaW1lbnNpb24+NzQ8L2V4aWY6UGl4ZWxYRGltZW5zaW9uPgogICAgICAgICA8ZXhpZjpVc2VyQ29tbWVudD5TY3JlZW5zaG90PC9leGlmOlVzZXJDb21tZW50PgogICAgICA8L3JkZjpEZXNjcmlwdGlvbj4KICAgPC9yZGY6UkRGPgo8L3g6eG1wbWV0YT4KZ8tiLgAABBlJREFUeAHtmz1oFEEUx9/e5dSAElBEkKhVLCwuCAoK0cZG0KCVIBHFLiKC2GmhYBELIQgiphPEELCyULSxUlBQEFJYaOUHgojiF8SPXNb7nzmyGW/cNzs3czPJe0XuZu7d7X9++5+P3cwmaT1IIpdAKTdDEhoEBBTTCAJKQDEJMNPEUQKKSYCZJo4SUEwCzDRxlIBiEmCmiaMEFJMAM00cJaCYBJhp4igBxSTATBNHCSgmAWaaOEpAMQkw08RRAopJgJkmjhJQTALMNHGUgGISYKZ1MfNYaS/fp3TrWY0evJih5+9S+vAtpdoM66uFk8r1PrF6RUKb1ia0Y2OJ9m8uU9+apPDv6b6YtGPvAQBduDNNN5/UdMfxWn9ga5lO7+lqKzBrUNce1ujkxG/nzjElDaddOlihowNl06+2zLcazC/em6YT4+FBQkvR5aENGtsRhR0FJ0FIDHF5yN5ZhUBhTNpy/mdw3U130tANn55dajVmFep6GLhdz2a6Rheph1ZotgljUHBTKLObScOhGdqLhjEorJNiDRvtxqCwmIw1bLQbg8KKO9aw0W4MCpclsYaNdmNQMc126gm10W4MSj34Yim39e6BL2iHtpdp/cqEXn1Mafyxn1k4KlA93QmNHanQYP9cR8CtleHr7i+logEFSHdPLaFq7/x7TXDX608pjdy2W3nn9Ya5U5OX2cHPdZCaknbWXeU63B/BsgV5kPDzGKtcR9CgOJC+TpHzboeT4A0UGj3QV6INq+aPMToncCHtHv3lxVFeBvPB/nJjturp/osFA+/If257mECafOvn2tO5o6q9JZoYrlATElCd2dtFY4crLc0UIiQIdQ7q+K7WN/cxrauwQoXkBVRL28xWZmGFDAlynY9RV+7XaGhba1dBAGAhqutK/ywmGx/M/sHshoHb15iUPTbeO+96aFjeJQZgqSvurNBOQ/ICCge58aiWCysLJvs+BEjQ49xRzUYXgRUKJK+gcDATWCFB8g6KCys0SB0BlQcrREgdA5WFBTDNCBUS9DlfRzUhtHrFmDX5Jm2spT5PpYQ115f6a4hhvElj+bEfIbaDren71WXs3Gyit+VB9qAxvjcGhS00sYaNduNmY2NprGGj3RgUdt/GGjbajUHh/2ixho1241ZjH3esYaPdGBQ2u2Mfd2wBzTYb9Y1BARA2u9vMIL4hQys020QhUDgz2OweS0CrjZvQzkKg8EU8EXBun91Zwu+4Dmhsx9MLxpcwasMWyyMe1qAATh4aUu2TUwYweQwtB9JC/7jwYL7QwajtE1AqEU1ZQGnAqNUCSiWiKQsoDRi1WkCpRDRlAaUBo1YLKJWIpiygNGDUagGlEtGUBZQGjFotoFQimrKA0oBRqwWUSkRTFlAaMGq1gFKJaMp/AEvHe+BL61UhAAAAAElFTkSuQmCC;" vertex="1" parent="1">
                    <mxGeometry x="745" y="190.09999999999997" width="38.44" height="47.79" as="geometry"/>
                </mxCell>
                <mxCell id="54" value="" style="shape=image;verticalLabelPosition=bottom;labelBackgroundColor=#ffffff;verticalAlign=top;aspect=fixed;imageAspect=0;image=data:image/png,iVBORw0KGgoAAAANSUhEUgAAAEcAAABPCAYAAAC549hyAAABQ2lDQ1BJQ0MgUHJvZmlsZQAAKJFjYGASSSwoyGFhYGDIzSspCnJ3UoiIjFJgf8bAySDGwMGgzcCWmFxc4BgQ4ANUwgCjUcG3awyMIPqyLsis3vfuQdMvv15ekWU9QY3pXSemehTAlZJanAyk/wBxanJBUQkDA2MKkK1cXlIAYncA2SJFQEcB2XNA7HQIewOInQRhHwGrCQlyBrJvANkCyRmJQDMYXwDZOklI4ulIbKi9IMDt467gFurjo+DhQsC1ZICS1IoSEO2cX1BZlJmeUaLgCAylVAXPvGQ9HQUjAyMjBgZQmENUf74BDktGMQ6EWCHQj1aeDAxMuQixhAAGhh0fQF5FiKnqMDDwHGdgOBBbkFiUCHcA4zeW4jRjIwibezsDA+u0//8/hzMwsGsyMPy9/v//7+3///9dxsDAfAuo9xsAqPZflUpwRJgAAABWZVhJZk1NACoAAAAIAAGHaQAEAAAAAQAAABoAAAAAAAOShgAHAAAAEgAAAESgAgAEAAAAAQAAAEegAwAEAAAAAQAAAE8AAAAAQVNDSUkAAABTY3JlZW5zaG907ZoqiAAAAdRpVFh0WE1MOmNvbS5hZG9iZS54bXAAAAAAADx4OnhtcG1ldGEgeG1sbnM6eD0iYWRvYmU6bnM6bWV0YS8iIHg6eG1wdGs9IlhNUCBDb3JlIDYuMC4wIj4KICAgPHJkZjpSREYgeG1sbnM6cmRmPSJodHRwOi8vd3d3LnczLm9yZy8xOTk5LzAyLzIyLXJkZi1zeW50YXgtbnMjIj4KICAgICAgPHJkZjpEZXNjcmlwdGlvbiByZGY6YWJvdXQ9IiIKICAgICAgICAgICAgeG1sbnM6ZXhpZj0iaHR0cDovL25zLmFkb2JlLmNvbS9leGlmLzEuMC8iPgogICAgICAgICA8ZXhpZjpQaXhlbFlEaW1lbnNpb24+Nzk8L2V4aWY6UGl4ZWxZRGltZW5zaW9uPgogICAgICAgICA8ZXhpZjpQaXhlbFhEaW1lbnNpb24+NzE8L2V4aWY6UGl4ZWxYRGltZW5zaW9uPgogICAgICAgICA8ZXhpZjpVc2VyQ29tbWVudD5TY3JlZW5zaG90PC9leGlmOlVzZXJDb21tZW50PgogICAgICA8L3JkZjpEZXNjcmlwdGlvbj4KICAgPC9yZGY6UkRGPgo8L3g6eG1wbWV0YT4KmQwYDgAAAx1JREFUeAHtm09rKkEQxMeHgqgHD4bgSbyoB69+/w/g1YMGIXiKogcPKoJC3itDLx0w9WbU6CLVYNZMr9u1P2t2/NMWPv9FUJwl8OfsqAZPBASHGEFwBIcQICk5R3AIAZKScwSHECApOUdwCAGSknMEhxAgKTmHwCmSXHJqt9uF5XIZ1ut12G634XA4hN9+018oFEKpVArVajXU6/Xw8vISKpVKsvZzDyjc4iMLQJnNZmGxWJyrcfex19fX0Gq1roZ0NZyPj4/w9vb26w5JJQxHdTqd0Gw2Ux+a7X8VHLjl/f09OxjuwNp2q9VqoVi86cz9Vgv/HI/HsNlsTlMZ0xk3H+12++QiPxZ7/2I4cMxkMsnqAEKv1wuNRiMbe8Sd1WoVxuPxCZrV73a7FznoIji4xgyHw2wqwSH9fj+Uy2XT89Dtfr8Po9Ho5CgIwRQbDAbJ16CLlnJMJ1uF4Jg8gQEMPEnQZFMaWqE5NZLhwDV+VcJUyotj/MlDE7RZQDO0p0QyHLyOscCF99HXGNNybgtt0GjhtdsY2ybD8auBL8yKPDLnNXrtMZqS4eCVr4UvbGN523qNXnuMzmQ4eEtggVUq7+E1eu0xupPh2CqFg9tqEFPoUft4jV57jJ5kODEHfZZ9BIc8k4IjOIQASck5gkMIkJScIziEAEnJOYJDCJCUnCM4hABJyTmCQwiQlJwjOIQASck5gkMIkJScIziEAEnJOYJDCJCUnHNLOGjnsEDjUN7Da/TaY3QnOwfNiRboqMp7eI1ee4zuZDjo2rRI/WLeHnfPrdfotcdoSIbjv5j3hWOKPWIfr9Frj9GSDAd9vhYojB68vMZ8Pv/WQOm1x2hOhoMGaPT5WqA5ET14eQtomk6nmSxoTm3eToaDamiAtis/VgM0J+YJkDVM2koFrdCcGhd1k6JIXlttMZXgGAMDrXdttUVBhJq0vzj8+Fft/T+i+UrohyH/AYQ0IOknRRGgnmGXi5byZzjxmHMQHEJJcASHECApOUdwCAGSknMEhxAgKTlHcAgBkpJzBIcQICk5R3AIAZKScwSHECCpv5DNSnQLSnIJAAAAAElFTkSuQmCC;" vertex="1" parent="1">
                    <mxGeometry x="745" y="263" width="40.45" height="45" as="geometry"/>
                </mxCell>
            </root>
        </mxGraphModel>
    </diagram>
</mxfile>